<?xml version="1.0" encoding="UTF-8"?>
<svg width="52" height="52" viewBox="0 0 52 52" fill="none" xmlns="http://www.w3.org/2000/svg">
  <defs>
    <filter id="shadow" x="-15" y="-15" width="82" height="82" filterUnits="userSpaceOnUse">
      <feDropShadow dx="0" dy="2" stdDeviation="3" flood-color="#000000" flood-opacity="0.18"/>
    </filter>
  </defs>
  <!-- White circle -->
  <circle cx="26" cy="26" r="24" fill="white" stroke="#000000" stroke-opacity="0.10" stroke-width="1" filter="url(#shadow)"/>
  <!-- Controller body -->
  <path d="M14 23 Q14 18 19 18 L33 18 Q38 18 38 23 L38 29 Q38 34 33 34 L19 34 Q14 34 14 29 Z"
        stroke="#D85A30" stroke-width="2.2" stroke-linejoin="round"/>
  <!-- Left shoulder bumper -->
  <path d="M19 18 Q19 15 22 15 L24.5 15"
        stroke="#D85A30" stroke-width="2.2" stroke-linecap="round"/>
  <!-- Right shoulder bumper -->
  <path d="M33 18 Q33 15 30 15 L27.5 15"
        stroke="#D85A30" stroke-width="2.2" stroke-linecap="round"/>
  <!-- D-pad horizontal -->
  <line x1="17" y1="26" x2="23" y2="26" stroke="#D85A30" stroke-width="2.2" stroke-linecap="round"/>
  <!-- D-pad vertical -->
  <line x1="20" y1="23" x2="20" y2="29" stroke="#D85A30" stroke-width="2.2" stroke-linecap="round"/>
  <!-- Action button (A) -->
  <circle cx="33" cy="26" r="2.6" stroke="#D85A30" stroke-width="2.2"/>
  <!-- Select dot (centre) -->
  <circle cx="26" cy="26" r="1.5" fill="#D85A30"/>
</svg>
